<svg xmlns="http://www.w3.org/2000/svg" xmlns:xlink="http://www.w3.org/1999/xlink" width="500" zoomAndPan="magnify" viewBox="0 0 375 374.999991" height="500" preserveAspectRatio="xMidYMid meet" version="1.0"><path fill="#940303" d="M 231.429688 78.460938 C 230.671875 84.214844 228.796875 89.773438 225.890625 94.785156 C 221.441406 102.480469 214.84375 108.53125 207.113281 112.355469 C 205.824219 112.996094 204.5 113.570312 203.15625 114.082031 C 202.257812 114.421875 201.347656 114.734375 200.429688 115.015625 C 196.289062 116.289062 191.9375 116.960938 187.5 116.960938 C 169.175781 116.960938 153.414062 105.777344 146.679688 89.878906 C 146.117188 88.558594 145.617188 87.195312 145.1875 85.8125 C 144.753906 84.425781 144.386719 83.011719 144.09375 81.570312 C 143.503906 78.6875 143.191406 75.703125 143.191406 72.648438 C 143.191406 71.746094 143.222656 70.847656 143.277344 69.949219 C 143.296875 69.65625 143.328125 69.363281 143.351562 69.070312 C 143.402344 68.464844 143.453125 67.859375 143.527344 67.261719 C 143.570312 66.917969 143.625 66.570312 143.675781 66.226562 C 143.757812 65.679688 143.835938 65.136719 143.9375 64.597656 C 144.007812 64.234375 144.078125 63.875 144.152344 63.523438 C 144.265625 62.996094 144.382812 62.46875 144.511719 61.949219 C 144.597656 61.59375 144.695312 61.238281 144.792969 60.886719 C 144.933594 60.363281 145.085938 59.84375 145.25 59.324219 C 145.359375 58.988281 145.464844 58.648438 145.578125 58.308594 C 145.761719 57.773438 145.964844 57.238281 146.164062 56.710938 C 146.285156 56.40625 146.394531 56.097656 146.519531 55.792969 C 146.769531 55.183594 147.039062 54.585938 147.316406 53.992188 C 147.417969 53.777344 147.507812 53.554688 147.613281 53.34375 C 147.628906 53.304688 147.652344 53.269531 147.667969 53.230469 C 160.539062 49.417969 173.925781 47.484375 187.5 47.484375 C 201.074219 47.484375 214.460938 49.417969 227.332031 53.230469 C 227.347656 53.269531 227.371094 53.304688 227.386719 53.339844 C 227.496094 53.566406 227.59375 53.800781 227.703125 54.03125 C 227.96875 54.613281 228.234375 55.199219 228.480469 55.789062 C 228.601562 56.101562 228.71875 56.414062 228.839844 56.726562 C 229.042969 57.253906 229.238281 57.777344 229.421875 58.308594 C 229.535156 58.648438 229.640625 58.992188 229.75 59.335938 C 229.910156 59.851562 230.066406 60.363281 230.207031 60.882812 C 230.304688 61.238281 230.398438 61.59375 230.488281 61.957031 C 230.613281 62.472656 230.734375 62.996094 230.847656 63.519531 C 230.921875 63.875 230.992188 64.234375 231.0625 64.597656 C 231.160156 65.136719 231.242188 65.683594 231.324219 66.230469 C 231.375 66.570312 231.429688 66.917969 231.472656 67.261719 C 231.546875 67.859375 231.597656 68.464844 231.648438 69.070312 C 231.667969 69.363281 231.707031 69.65625 231.722656 69.949219 C 231.777344 70.847656 231.808594 71.746094 231.808594 72.648438 C 231.808594 74.597656 231.683594 76.539062 231.429688 78.460938 Z M 212.269531 35.925781 C 204.117188 34.601562 195.839844 33.933594 187.5 33.933594 C 179.15625 33.933594 170.882812 34.601562 162.730469 35.925781 C 169.933594 31.070312 178.53125 28.347656 187.5 28.347656 C 196.46875 28.347656 205.0625 31.070312 212.269531 35.925781 Z M 245.363281 72.648438 C 245.363281 63.308594 243.101562 54.089844 238.804688 45.878906 C 238.777344 45.820312 238.738281 45.757812 238.707031 45.699219 C 238.453125 45.214844 238.191406 44.734375 237.925781 44.253906 C 237.921875 44.253906 237.921875 44.25 237.921875 44.25 C 237.917969 44.246094 237.917969 44.246094 237.917969 44.246094 C 227.671875 26.078125 208.351562 14.792969 187.5 14.792969 C 166.640625 14.792969 147.320312 26.082031 137.078125 44.25 C 132.210938 52.867188 129.636719 62.6875 129.636719 72.648438 C 129.636719 104.558594 155.59375 130.515625 187.5 130.515625 C 208.097656 130.515625 227.304688 119.421875 237.625 101.574219 C 242.683594 92.835938 245.363281 82.832031 245.363281 72.648438 Z M 244.164062 256.402344 C 241.101562 244.972656 242.675781 233.027344 248.589844 222.773438 C 254.5 212.527344 264.054688 205.199219 275.496094 202.136719 C 279.320312 201.109375 283.199219 200.601562 287.054688 200.601562 C 294.726562 200.601562 302.296875 202.609375 309.113281 206.546875 C 309.890625 206.996094 310.65625 207.476562 311.40625 207.972656 C 311.65625 208.136719 311.894531 208.316406 312.140625 208.484375 C 312.636719 208.828125 313.128906 209.167969 313.605469 209.53125 C 313.886719 209.742188 314.160156 209.96875 314.4375 210.183594 C 314.867188 210.523438 315.292969 210.867188 315.710938 211.21875 C 315.988281 211.460938 316.265625 211.707031 316.542969 211.957031 C 316.9375 212.308594 317.328125 212.667969 317.707031 213.035156 C 317.976562 213.292969 318.242188 213.558594 318.503906 213.820312 C 318.878906 214.203125 319.246094 214.59375 319.609375 214.988281 C 319.851562 215.253906 320.101562 215.519531 320.339844 215.789062 C 320.710938 216.214844 321.0625 216.648438 321.414062 217.082031 C 321.628906 217.34375 321.84375 217.601562 322.046875 217.863281 C 322.441406 218.375 322.820312 218.902344 323.191406 219.429688 C 323.332031 219.632812 323.484375 219.832031 323.621094 220.035156 C 323.648438 220.066406 323.667969 220.105469 323.691406 220.140625 C 317.390625 246.582031 303.660156 270.332031 283.800781 289.136719 C 283.761719 289.132812 283.722656 289.132812 283.683594 289.132812 C 283.449219 289.113281 283.210938 289.082031 282.976562 289.058594 C 282.328125 289.003906 281.675781 288.933594 281.027344 288.847656 C 280.699219 288.800781 280.375 288.742188 280.046875 288.695312 C 279.496094 288.601562 278.941406 288.511719 278.386719 288.40625 C 278.035156 288.332031 277.683594 288.25 277.332031 288.171875 C 276.8125 288.054688 276.289062 287.933594 275.769531 287.796875 C 275.414062 287.703125 275.0625 287.605469 274.707031 287.503906 C 274.191406 287.351562 273.683594 287.195312 273.175781 287.027344 C 272.828125 286.914062 272.484375 286.800781 272.136719 286.675781 C 271.621094 286.492188 271.105469 286.292969 270.59375 286.085938 C 270.273438 285.960938 269.949219 285.835938 269.632812 285.699219 C 269.074219 285.460938 268.523438 285.203125 267.976562 284.949219 C 267.714844 284.820312 267.449219 284.703125 267.183594 284.574219 C 266.378906 284.171875 265.585938 283.75 264.804688 283.300781 C 254.554688 277.390625 247.222656 267.835938 244.164062 256.402344 Z M 325.335938 267.078125 C 320.847656 274.851562 314.1875 280.941406 306.375 284.753906 C 316.945312 271.882812 325.292969 257.464844 331.15625 241.933594 C 331.738281 250.574219 329.800781 259.34375 325.335938 267.078125 Z M 286.265625 302.804688 C 286.269531 302.804688 286.273438 302.804688 286.277344 302.804688 C 286.296875 302.804688 286.320312 302.804688 286.339844 302.804688 C 286.535156 302.804688 286.726562 302.808594 286.921875 302.808594 C 307.578125 302.808594 326.75 291.757812 337.074219 273.855469 C 347.5 255.796875 347.378906 233.417969 336.761719 215.449219 C 336.445312 214.914062 336.121094 214.390625 335.789062 213.867188 C 335.324219 213.132812 334.832031 212.410156 334.332031 211.695312 C 329.871094 205.335938 324.132812 199.898438 317.492188 195.769531 C 316.964844 195.441406 316.433594 195.121094 315.894531 194.808594 C 302.515625 187.085938 286.921875 185.039062 271.988281 189.042969 C 257.050781 193.042969 244.574219 202.617188 236.847656 216 C 229.125 229.390625 227.074219 244.984375 231.066406 259.910156 C 235.066406 274.84375 244.644531 287.320312 258.03125 295.039062 C 266.636719 300.007812 276.402344 302.695312 286.265625 302.804688 Z M 213.191406 303.46875 C 213.1875 303.601562 213.171875 303.734375 213.167969 303.863281 C 213.152344 304.101562 213.140625 304.34375 213.117188 304.578125 C 213.105469 304.734375 213.082031 304.890625 213.066406 305.046875 C 213.042969 305.261719 213.027344 305.46875 212.996094 305.675781 C 212.976562 305.839844 212.949219 306 212.921875 306.160156 C 212.894531 306.363281 212.863281 306.5625 212.828125 306.765625 C 212.800781 306.925781 212.765625 307.089844 212.734375 307.253906 C 212.695312 307.449219 212.660156 307.644531 212.617188 307.835938 C 212.582031 308.003906 212.539062 308.167969 212.496094 308.328125 C 212.449219 308.519531 212.410156 308.707031 212.359375 308.894531 C 212.3125 309.0625 212.265625 309.226562 212.214844 309.398438 C 212.164062 309.578125 212.117188 309.757812 212.058594 309.933594 C 212.003906 310.105469 211.949219 310.269531 211.890625 310.4375 C 211.832031 310.613281 211.777344 310.789062 211.714844 310.960938 C 211.652344 311.128906 211.589844 311.296875 211.523438 311.464844 C 211.460938 311.632812 211.398438 311.800781 211.332031 311.964844 C 211.261719 312.136719 211.1875 312.304688 211.117188 312.46875 C 211.042969 312.632812 210.976562 312.796875 210.90625 312.957031 C 210.828125 313.121094 210.75 313.285156 210.671875 313.449219 C 210.59375 313.605469 210.515625 313.765625 210.4375 313.925781 C 210.355469 314.089844 210.265625 314.246094 210.183594 314.40625 C 210.097656 314.5625 210.015625 314.714844 209.929688 314.871094 C 209.84375 315.027344 209.746094 315.1875 209.652344 315.347656 C 209.566406 315.496094 209.480469 315.644531 209.390625 315.789062 C 209.289062 315.949219 209.1875 316.105469 209.089844 316.261719 C 208.996094 316.40625 208.90625 316.550781 208.808594 316.6875 C 208.703125 316.84375 208.597656 317 208.488281 317.152344 C 208.390625 317.289062 208.292969 317.429688 208.191406 317.566406 C 208.082031 317.71875 207.96875 317.863281 207.855469 318.015625 C 207.75 318.148438 207.648438 318.28125 207.542969 318.414062 C 207.425781 318.5625 207.304688 318.703125 207.179688 318.847656 C 207.074219 318.976562 206.96875 319.109375 206.859375 319.230469 C 206.734375 319.375 206.605469 319.515625 206.476562 319.65625 C 206.367188 319.777344 206.257812 319.90625 206.140625 320.023438 C 206.007812 320.164062 205.875 320.300781 205.742188 320.433594 C 205.625 320.554688 205.507812 320.671875 205.390625 320.785156 C 205.253906 320.921875 205.113281 321.050781 204.972656 321.179688 C 204.851562 321.296875 204.734375 321.40625 204.609375 321.515625 C 204.464844 321.644531 204.320312 321.769531 204.175781 321.894531 C 204.050781 322 203.925781 322.109375 203.796875 322.214844 C 203.648438 322.335938 203.5 322.453125 203.347656 322.574219 C 203.214844 322.679688 203.085938 322.78125 202.957031 322.882812 C 202.800781 322.996094 202.644531 323.109375 202.488281 323.222656 C 202.355469 323.320312 202.21875 323.417969 202.082031 323.511719 C 201.925781 323.621094 201.765625 323.726562 201.609375 323.835938 C 201.46875 323.925781 201.328125 324.015625 201.183594 324.109375 C 201.023438 324.210938 200.859375 324.308594 200.695312 324.40625 C 200.554688 324.496094 200.40625 324.582031 200.261719 324.667969 C 200.09375 324.761719 199.929688 324.851562 199.761719 324.945312 C 199.613281 325.027344 199.460938 325.109375 199.308594 325.1875 C 199.140625 325.277344 198.972656 325.359375 198.796875 325.445312 C 198.644531 325.519531 198.488281 325.59375 198.335938 325.671875 C 198.164062 325.75 197.988281 325.828125 197.8125 325.90625 C 197.65625 325.972656 197.496094 326.042969 197.335938 326.109375 C 197.160156 326.179688 196.980469 326.253906 196.804688 326.324219 C 196.644531 326.386719 196.476562 326.449219 196.3125 326.511719 C 196.136719 326.574219 195.953125 326.636719 195.773438 326.699219 C 195.609375 326.757812 195.4375 326.8125 195.265625 326.863281 C 195.085938 326.921875 194.910156 326.980469 194.726562 327.03125 C 194.554688 327.082031 194.378906 327.132812 194.203125 327.179688 C 194.019531 327.230469 193.835938 327.273438 193.65625 327.320312 C 193.550781 327.347656 193.445312 327.371094 193.335938 327.394531 C 189.519531 327.554688 185.457031 327.554688 181.652344 327.394531 C 181.546875 327.371094 181.4375 327.34375 181.332031 327.316406 C 181.152344 327.273438 180.972656 327.230469 180.792969 327.179688 C 180.613281 327.132812 180.4375 327.082031 180.261719 327.03125 C 180.082031 326.980469 179.90625 326.925781 179.730469 326.867188 C 179.554688 326.8125 179.382812 326.753906 179.207031 326.695312 C 179.03125 326.636719 178.859375 326.574219 178.683594 326.511719 C 178.515625 326.453125 178.347656 326.386719 178.175781 326.320312 C 178.003906 326.253906 177.832031 326.183594 177.664062 326.113281 C 177.496094 326.042969 177.332031 325.972656 177.167969 325.902344 C 177 325.828125 176.832031 325.75 176.667969 325.671875 C 176.503906 325.597656 176.34375 325.519531 176.183594 325.441406 C 176.019531 325.359375 175.851562 325.277344 175.6875 325.191406 C 175.535156 325.109375 175.378906 325.027344 175.222656 324.945312 C 175.0625 324.851562 174.898438 324.765625 174.734375 324.671875 C 174.585938 324.585938 174.4375 324.496094 174.289062 324.40625 C 174.128906 324.308594 173.972656 324.210938 173.8125 324.113281 C 173.664062 324.019531 173.523438 323.925781 173.382812 323.832031 C 173.222656 323.726562 173.070312 323.625 172.914062 323.519531 C 172.773438 323.421875 172.632812 323.320312 172.496094 323.21875 C 172.34375 323.109375 172.195312 323 172.042969 322.886719 C 171.90625 322.78125 171.773438 322.679688 171.640625 322.570312 C 171.492188 322.453125 171.347656 322.339844 171.203125 322.21875 C 171.070312 322.113281 170.941406 322 170.8125 321.890625 C 170.671875 321.765625 170.53125 321.648438 170.390625 321.523438 C 170.265625 321.410156 170.140625 321.292969 170.015625 321.175781 C 169.878906 321.046875 169.742188 320.921875 169.609375 320.789062 C 169.484375 320.671875 169.367188 320.550781 169.25 320.429688 C 169.117188 320.296875 168.988281 320.164062 168.859375 320.027344 C 168.738281 319.90625 168.625 319.777344 168.511719 319.652344 C 168.390625 319.515625 168.261719 319.378906 168.140625 319.238281 C 168.027344 319.109375 167.921875 318.976562 167.808594 318.847656 C 167.691406 318.703125 167.570312 318.5625 167.453125 318.417969 C 167.347656 318.285156 167.246094 318.148438 167.140625 318.011719 C 167.027344 317.863281 166.914062 317.71875 166.804688 317.570312 C 166.703125 317.429688 166.605469 317.289062 166.503906 317.144531 C 166.398438 316.996094 166.292969 316.847656 166.1875 316.695312 C 166.09375 316.550781 166 316.40625 165.90625 316.257812 C 165.804688 316.101562 165.707031 315.953125 165.609375 315.796875 C 165.515625 315.648438 165.433594 315.496094 165.34375 315.347656 C 165.25 315.191406 165.15625 315.03125 165.066406 314.871094 C 164.980469 314.71875 164.902344 314.566406 164.820312 314.414062 C 164.734375 314.253906 164.644531 314.089844 164.5625 313.925781 C 164.484375 313.769531 164.40625 313.609375 164.328125 313.449219 C 164.25 313.289062 164.171875 313.125 164.09375 312.957031 C 164.019531 312.796875 163.953125 312.628906 163.878906 312.46875 C 163.808594 312.300781 163.738281 312.136719 163.667969 311.96875 C 163.601562 311.804688 163.539062 311.632812 163.476562 311.46875 C 163.410156 311.296875 163.34375 311.132812 163.285156 310.964844 C 163.222656 310.789062 163.164062 310.613281 163.109375 310.4375 C 163.050781 310.273438 162.992188 310.105469 162.9375 309.9375 C 162.882812 309.757812 162.835938 309.578125 162.78125 309.394531 C 162.734375 309.226562 162.6875 309.0625 162.640625 308.894531 C 162.589844 308.710938 162.546875 308.523438 162.503906 308.339844 C 162.460938 308.171875 162.417969 308.003906 162.382812 307.835938 C 162.339844 307.644531 162.304688 307.449219 162.265625 307.257812 C 162.234375 307.09375 162.195312 306.929688 162.167969 306.765625 C 162.136719 306.5625 162.105469 306.359375 162.074219 306.160156 C 162.050781 305.996094 162.023438 305.839844 162 305.675781 C 161.972656 305.460938 161.953125 305.242188 161.929688 305.027344 C 161.914062 304.878906 161.894531 304.730469 161.882812 304.578125 C 161.859375 304.335938 161.84375 304.089844 161.832031 303.84375 C 161.828125 303.71875 161.8125 303.59375 161.804688 303.46875 C 161.789062 303.097656 161.785156 302.722656 161.785156 302.351562 C 161.785156 288.183594 173.320312 276.660156 187.5 276.660156 C 201.679688 276.660156 213.214844 288.183594 213.214844 302.351562 C 213.214844 302.722656 213.210938 303.097656 213.191406 303.46875 Z M 187.5 263.105469 C 165.847656 263.105469 148.230469 280.710938 148.230469 302.351562 C 148.230469 311.40625 151.382812 320.242188 157.113281 327.234375 C 157.820312 328.09375 158.5625 328.921875 159.335938 329.714844 C 160.070312 330.476562 160.839844 331.199219 161.628906 331.890625 C 161.707031 331.960938 161.785156 332.027344 161.863281 332.097656 C 166.851562 336.386719 172.871094 339.402344 179.328125 340.769531 C 182.003906 341.335938 184.753906 341.621094 187.5 341.621094 C 190.246094 341.621094 192.992188 341.335938 195.664062 340.769531 C 213.6875 336.949219 226.769531 320.789062 226.769531 302.351562 C 226.769531 280.710938 209.152344 263.105469 187.5 263.105469 Z M 264.710938 142.9375 C 263.175781 140.273438 262.148438 137.414062 261.632812 134.476562 C 261 130.84375 261.15625 127.085938 262.136719 123.421875 C 263.910156 116.789062 268.160156 111.253906 274.113281 107.820312 C 277.617188 105.792969 281.445312 104.679688 285.296875 104.4375 C 285.847656 104.402344 286.394531 104.382812 286.945312 104.382812 C 287.386719 104.382812 287.828125 104.394531 288.269531 104.417969 C 288.417969 104.421875 288.5625 104.441406 288.71875 104.449219 C 289.003906 104.46875 289.292969 104.488281 289.578125 104.519531 C 289.761719 104.539062 289.941406 104.5625 290.121094 104.585938 C 290.378906 104.617188 290.632812 104.644531 290.886719 104.683594 C 291.082031 104.714844 291.269531 104.753906 291.464844 104.789062 C 291.703125 104.832031 291.945312 104.871094 292.183594 104.917969 C 292.382812 104.960938 292.585938 105.007812 292.78125 105.054688 C 293.011719 105.109375 293.238281 105.160156 293.464844 105.21875 C 293.671875 105.269531 293.875 105.332031 294.078125 105.390625 C 294.296875 105.457031 294.519531 105.515625 294.734375 105.582031 C 294.9375 105.644531 295.144531 105.71875 295.34375 105.789062 C 295.554688 105.863281 295.769531 105.929688 295.984375 106.007812 C 296.1875 106.085938 296.386719 106.171875 296.589844 106.253906 C 296.796875 106.335938 297.003906 106.414062 297.210938 106.503906 C 297.410156 106.589844 297.605469 106.6875 297.804688 106.777344 C 298.007812 106.871094 298.210938 106.960938 298.414062 107.058594 C 298.609375 107.15625 298.800781 107.261719 298.996094 107.367188 C 299.191406 107.46875 299.394531 107.570312 299.589844 107.683594 C 299.78125 107.789062 299.96875 107.902344 300.15625 108.015625 C 300.351562 108.132812 300.542969 108.246094 300.734375 108.363281 C 300.921875 108.484375 301.101562 108.605469 301.289062 108.734375 C 301.472656 108.855469 301.664062 108.980469 301.847656 109.109375 C 302.03125 109.238281 302.203125 109.375 302.382812 109.503906 C 302.566406 109.640625 302.746094 109.777344 302.925781 109.917969 C 303.101562 110.054688 303.269531 110.203125 303.441406 110.339844 C 303.617188 110.492188 303.796875 110.636719 303.96875 110.789062 C 304.132812 110.933594 304.292969 111.085938 304.457031 111.238281 C 304.628906 111.398438 304.800781 111.554688 304.96875 111.722656 C 305.125 111.878906 305.28125 112.039062 305.433594 112.195312 C 305.5625 112.332031 305.695312 112.46875 305.824219 112.609375 C 307.839844 115.78125 309.738281 119.070312 311.492188 122.402344 C 311.527344 122.511719 311.5625 122.625 311.59375 122.738281 C 311.648438 122.910156 311.699219 123.085938 311.746094 123.261719 C 311.796875 123.445312 311.847656 123.632812 311.894531 123.820312 C 311.9375 123.992188 311.980469 124.167969 312.019531 124.34375 C 312.0625 124.53125 312.101562 124.71875 312.140625 124.910156 C 312.175781 125.082031 312.214844 125.257812 312.242188 125.433594 C 312.277344 125.621094 312.3125 125.808594 312.339844 126 C 312.371094 126.171875 312.394531 126.347656 312.417969 126.519531 C 312.449219 126.710938 312.46875 126.902344 312.488281 127.09375 C 312.511719 127.265625 312.527344 127.4375 312.546875 127.609375 C 312.566406 127.800781 312.582031 127.996094 312.59375 128.1875 C 312.605469 128.359375 312.621094 128.527344 312.625 128.699219 C 312.636719 128.894531 312.644531 129.085938 312.648438 129.28125 C 312.65625 129.449219 312.660156 129.621094 312.660156 129.792969 C 312.664062 129.984375 312.660156 130.175781 312.65625 130.367188 C 312.65625 130.535156 312.652344 130.710938 312.648438 130.878906 C 312.644531 131.070312 312.628906 131.261719 312.621094 131.453125 C 312.609375 131.621094 312.601562 131.789062 312.585938 131.960938 C 312.574219 132.152344 312.554688 132.34375 312.539062 132.535156 C 312.519531 132.703125 312.507812 132.867188 312.484375 133.035156 C 312.460938 133.226562 312.433594 133.417969 312.410156 133.609375 C 312.386719 133.777344 312.363281 133.9375 312.335938 134.105469 C 312.304688 134.292969 312.273438 134.484375 312.234375 134.675781 C 312.203125 134.835938 312.175781 135.003906 312.140625 135.164062 C 312.101562 135.355469 312.058594 135.542969 312.019531 135.730469 C 311.980469 135.890625 311.945312 136.054688 311.902344 136.214844 C 311.859375 136.402344 311.808594 136.589844 311.757812 136.78125 C 311.714844 136.9375 311.671875 137.09375 311.625 137.25 C 311.570312 137.4375 311.511719 137.625 311.453125 137.8125 C 311.402344 137.96875 311.355469 138.121094 311.300781 138.277344 C 311.238281 138.460938 311.175781 138.640625 311.105469 138.828125 C 311.050781 138.980469 310.996094 139.136719 310.9375 139.289062 C 310.867188 139.46875 310.792969 139.648438 310.71875 139.828125 C 310.65625 139.980469 310.597656 140.132812 310.535156 140.28125 C 310.457031 140.460938 310.371094 140.640625 310.289062 140.816406 C 310.222656 140.964844 310.15625 141.113281 310.085938 141.261719 C 310 141.4375 309.910156 141.609375 309.820312 141.785156 C 309.746094 141.929688 309.675781 142.078125 309.597656 142.21875 C 309.5 142.390625 309.402344 142.5625 309.308594 142.734375 C 309.226562 142.875 309.148438 143.015625 309.070312 143.15625 C 308.96875 143.328125 308.863281 143.492188 308.757812 143.660156 C 308.675781 143.796875 308.589844 143.9375 308.5 144.074219 C 308.390625 144.242188 308.28125 144.402344 308.171875 144.566406 C 308.078125 144.699219 307.988281 144.835938 307.898438 144.96875 C 307.78125 145.128906 307.660156 145.289062 307.542969 145.449219 C 307.445312 145.578125 307.351562 145.710938 307.25 145.839844 C 307.128906 145.996094 307 146.148438 306.878906 146.300781 C 306.773438 146.429688 306.671875 146.558594 306.570312 146.683594 C 306.4375 146.835938 306.304688 146.980469 306.175781 147.132812 C 306.0625 147.253906 305.957031 147.378906 305.847656 147.5 C 305.710938 147.644531 305.574219 147.789062 305.4375 147.933594 C 305.320312 148.050781 305.207031 148.171875 305.089844 148.289062 C 304.949219 148.429688 304.800781 148.566406 304.65625 148.703125 C 304.539062 148.816406 304.421875 148.933594 304.296875 149.046875 C 304.148438 149.1875 303.988281 149.320312 303.835938 149.457031 C 303.710938 149.558594 303.59375 149.667969 303.46875 149.773438 C 303.308594 149.910156 303.136719 150.039062 302.972656 150.171875 C 302.851562 150.269531 302.730469 150.367188 302.605469 150.464844 C 302.429688 150.597656 302.25 150.726562 302.070312 150.859375 C 301.949219 150.945312 301.832031 151.035156 301.707031 151.121094 C 301.511719 151.261719 301.304688 151.394531 301.101562 151.527344 C 300.996094 151.597656 300.886719 151.675781 300.777344 151.746094 C 300.460938 151.945312 300.140625 152.140625 299.8125 152.332031 C 293.871094 155.769531 286.945312 156.6875 280.316406 154.910156 C 273.683594 153.136719 268.140625 148.882812 264.710938 142.9375 Z M 276.8125 168.003906 C 277.65625 168.230469 278.503906 168.425781 279.351562 168.597656 C 281.898438 169.105469 284.460938 169.355469 287.019531 169.355469 C 293.824219 169.355469 300.542969 167.566406 306.589844 164.070312 C 309.109375 162.617188 311.410156 160.917969 313.484375 159.011719 C 323.847656 149.5 328.46875 134.882812 325.15625 120.96875 C 325.125 120.859375 325.09375 120.75 325.066406 120.640625 C 324.957031 120.195312 324.847656 119.75 324.71875 119.304688 C 324.558594 118.75 324.390625 118.195312 324.207031 117.644531 C 323.371094 115.15625 322.277344 112.734375 320.957031 110.445312 C 319.652344 108.175781 318.121094 106.046875 316.414062 104.109375 C 316.371094 104.058594 316.328125 104.011719 316.285156 103.960938 C 315.902344 103.523438 315.507812 103.105469 315.105469 102.691406 C 303.496094 90.734375 285.410156 87.488281 270.394531 94.488281 C 269.359375 94.96875 268.335938 95.503906 267.332031 96.082031 C 258.25 101.320312 251.753906 109.785156 249.042969 119.921875 C 246.335938 130.046875 247.726562 140.625 252.96875 149.707031 C 258.210938 158.796875 266.679688 165.292969 276.8125 168.003906 Z M 94.683594 154.910156 C 88.054688 156.6875 81.128906 155.769531 75.179688 152.324219 C 74.851562 152.136719 74.53125 151.941406 74.214844 151.742188 C 74.132812 151.6875 74.054688 151.632812 73.976562 151.582031 C 73.746094 151.433594 73.511719 151.277344 73.285156 151.121094 C 73.175781 151.042969 73.070312 150.964844 72.960938 150.886719 C 72.769531 150.746094 72.578125 150.609375 72.394531 150.464844 C 72.269531 150.371094 72.152344 150.273438 72.03125 150.175781 C 71.867188 150.046875 71.695312 149.910156 71.535156 149.773438 C 71.40625 149.671875 71.289062 149.558594 71.164062 149.457031 C 71.011719 149.324219 70.855469 149.1875 70.707031 149.050781 C 70.585938 148.941406 70.46875 148.824219 70.347656 148.710938 C 70.203125 148.574219 70.054688 148.4375 69.914062 148.296875 C 69.796875 148.175781 69.679688 148.054688 69.5625 147.933594 C 69.429688 147.792969 69.292969 147.65625 69.164062 147.515625 C 69.046875 147.386719 68.933594 147.253906 68.816406 147.121094 C 68.691406 146.980469 68.566406 146.84375 68.449219 146.703125 C 68.332031 146.566406 68.21875 146.425781 68.105469 146.285156 C 67.992188 146.144531 67.878906 146.003906 67.765625 145.863281 C 67.652344 145.71875 67.546875 145.570312 67.433594 145.421875 C 67.332031 145.28125 67.222656 145.144531 67.121094 145 C 67.015625 144.847656 66.910156 144.695312 66.808594 144.539062 C 66.710938 144.394531 66.613281 144.253906 66.515625 144.109375 C 66.414062 143.953125 66.316406 143.792969 66.21875 143.632812 C 66.128906 143.484375 66.035156 143.34375 65.949219 143.195312 C 65.851562 143.035156 65.757812 142.867188 65.667969 142.699219 C 65.582031 142.554688 65.5 142.410156 65.421875 142.265625 C 65.328125 142.097656 65.246094 141.921875 65.15625 141.75 C 65.082031 141.605469 65.007812 141.457031 64.933594 141.3125 C 64.847656 141.136719 64.769531 140.957031 64.6875 140.78125 C 64.621094 140.632812 64.550781 140.488281 64.484375 140.339844 C 64.40625 140.160156 64.332031 139.976562 64.257812 139.792969 C 64.195312 139.648438 64.132812 139.5 64.078125 139.351562 C 64.007812 139.167969 63.9375 138.980469 63.871094 138.796875 C 63.820312 138.644531 63.761719 138.496094 63.710938 138.347656 C 63.644531 138.15625 63.585938 137.96875 63.527344 137.78125 C 63.480469 137.625 63.429688 137.476562 63.386719 137.324219 C 63.328125 137.136719 63.273438 136.941406 63.222656 136.746094 C 63.183594 136.597656 63.140625 136.445312 63.101562 136.296875 C 63.054688 136.097656 63.007812 135.902344 62.960938 135.707031 C 62.929688 135.554688 62.894531 135.398438 62.863281 135.25 C 62.820312 135.050781 62.785156 134.851562 62.746094 134.65625 C 62.71875 134.5 62.6875 134.347656 62.664062 134.195312 C 62.628906 133.992188 62.601562 133.796875 62.574219 133.59375 C 62.550781 133.441406 62.53125 133.285156 62.511719 133.132812 C 62.488281 132.933594 62.46875 132.730469 62.445312 132.527344 C 62.433594 132.371094 62.414062 132.214844 62.402344 132.058594 C 62.386719 131.859375 62.375 131.65625 62.363281 131.453125 C 62.355469 131.296875 62.34375 131.140625 62.335938 130.984375 C 62.332031 130.78125 62.328125 130.578125 62.324219 130.378906 C 62.320312 130.21875 62.316406 130.058594 62.316406 129.898438 C 62.320312 129.695312 62.324219 129.5 62.332031 129.300781 C 62.335938 129.136719 62.335938 128.972656 62.347656 128.8125 C 62.355469 128.613281 62.371094 128.414062 62.382812 128.214844 C 62.394531 128.054688 62.40625 127.886719 62.421875 127.722656 C 62.4375 127.527344 62.460938 127.332031 62.480469 127.136719 C 62.5 126.964844 62.519531 126.800781 62.542969 126.628906 C 62.570312 126.4375 62.597656 126.246094 62.628906 126.054688 C 62.65625 125.886719 62.683594 125.710938 62.710938 125.542969 C 62.746094 125.355469 62.785156 125.164062 62.824219 124.972656 C 62.859375 124.800781 62.894531 124.628906 62.933594 124.457031 C 62.972656 124.269531 63.019531 124.085938 63.0625 123.898438 C 63.109375 123.722656 63.152344 123.546875 63.199219 123.367188 C 63.25 123.191406 63.300781 123.011719 63.351562 122.828125 C 63.386719 122.722656 63.417969 122.613281 63.453125 122.507812 C 65.21875 119.136719 67.144531 115.800781 69.191406 112.574219 C 69.261719 112.503906 69.328125 112.433594 69.394531 112.363281 C 69.832031 111.902344 70.277344 111.460938 70.738281 111.039062 C 70.765625 111.019531 70.789062 110.992188 70.8125 110.96875 C 71.296875 110.535156 71.796875 110.125 72.308594 109.734375 C 72.417969 109.648438 72.53125 109.5625 72.644531 109.480469 C 73.152344 109.097656 73.667969 108.738281 74.199219 108.398438 C 74.277344 108.351562 74.351562 108.308594 74.425781 108.261719 C 74.917969 107.957031 75.421875 107.671875 75.925781 107.40625 C 76.03125 107.347656 76.136719 107.289062 76.242188 107.234375 C 76.792969 106.953125 77.355469 106.6875 77.921875 106.449219 C 78.046875 106.394531 78.171875 106.347656 78.296875 106.296875 C 78.835938 106.078125 79.382812 105.875 79.933594 105.691406 C 79.992188 105.671875 80.050781 105.652344 80.109375 105.632812 C 80.695312 105.441406 81.292969 105.28125 81.890625 105.132812 C 82.042969 105.097656 82.1875 105.0625 82.335938 105.027344 C 82.929688 104.894531 83.527344 104.777344 84.128906 104.683594 C 84.230469 104.671875 84.328125 104.660156 84.429688 104.644531 C 84.964844 104.570312 85.5 104.515625 86.03125 104.472656 C 86.183594 104.460938 86.339844 104.445312 86.488281 104.4375 C 87.070312 104.402344 87.65625 104.386719 88.242188 104.390625 C 88.46875 104.394531 88.695312 104.40625 88.917969 104.414062 C 89.339844 104.425781 89.761719 104.453125 90.183594 104.484375 C 90.429688 104.507812 90.679688 104.53125 90.929688 104.558594 C 91.359375 104.605469 91.785156 104.667969 92.210938 104.738281 C 92.425781 104.773438 92.640625 104.800781 92.855469 104.84375 C 93.46875 104.960938 94.074219 105.097656 94.679688 105.261719 C 94.871094 105.308594 95.050781 105.371094 95.242188 105.425781 C 95.679688 105.554688 96.125 105.691406 96.558594 105.847656 C 96.789062 105.929688 97.023438 106.019531 97.253906 106.105469 C 97.664062 106.265625 98.066406 106.433594 98.46875 106.613281 C 98.679688 106.707031 98.886719 106.796875 99.09375 106.898438 C 99.667969 107.171875 100.234375 107.464844 100.792969 107.785156 C 100.816406 107.800781 100.847656 107.8125 100.871094 107.824219 C 106.816406 111.253906 111.070312 116.792969 112.851562 123.425781 C 114.628906 130.058594 113.71875 136.988281 110.289062 142.9375 C 108.359375 146.28125 105.761719 149.089844 102.675781 151.222656 C 100.277344 152.882812 97.585938 154.132812 94.683594 154.910156 Z M 60.316406 157.863281 C 62.6875 160.234375 65.390625 162.328125 68.398438 164.0625 C 69.914062 164.9375 71.46875 165.707031 73.054688 166.367188 C 74.640625 167.027344 76.261719 167.582031 77.90625 168.023438 C 81.199219 168.90625 84.582031 169.355469 87.984375 169.355469 C 91.386719 169.355469 94.8125 168.910156 98.1875 168.003906 C 108.320312 165.292969 116.785156 158.796875 122.03125 149.707031 C 127.269531 140.625 128.660156 130.046875 125.945312 119.914062 C 125.769531 119.285156 125.589844 118.65625 125.390625 118.035156 C 125.148438 117.292969 124.882812 116.558594 124.601562 115.835938 C 121.378906 107.519531 115.476562 100.601562 107.652344 96.09375 C 107.652344 96.089844 107.648438 96.089844 107.648438 96.089844 C 107.644531 96.085938 107.644531 96.082031 107.640625 96.082031 C 107.308594 95.890625 106.96875 95.710938 106.632812 95.53125 C 106.46875 95.4375 106.300781 95.339844 106.136719 95.257812 C 105.800781 95.082031 105.460938 94.917969 105.125 94.753906 C 104.949219 94.671875 104.777344 94.578125 104.597656 94.496094 C 104.285156 94.347656 103.964844 94.214844 103.648438 94.078125 C 103.445312 93.992188 103.242188 93.894531 103.035156 93.808594 C 102.738281 93.683594 102.433594 93.574219 102.136719 93.457031 C 101.90625 93.371094 101.6875 93.277344 101.457031 93.195312 C 101.1875 93.09375 100.914062 93.011719 100.640625 92.917969 C 100.382812 92.828125 100.121094 92.734375 99.859375 92.652344 C 99.617188 92.574219 99.367188 92.507812 99.117188 92.4375 C 98.832031 92.351562 98.542969 92.261719 98.25 92.183594 C 98.019531 92.121094 97.789062 92.070312 97.558594 92.011719 C 97.25 91.9375 96.9375 91.851562 96.625 91.785156 C 96.453125 91.746094 96.28125 91.714844 96.105469 91.679688 C 95.734375 91.601562 95.363281 91.519531 94.992188 91.453125 C 94.894531 91.4375 94.800781 91.425781 94.707031 91.410156 C 94.253906 91.335938 93.800781 91.257812 93.347656 91.199219 C 93.332031 91.195312 93.316406 91.195312 93.300781 91.191406 C 80.703125 89.503906 67.617188 93.984375 58.777344 103.875 C 58.773438 103.875 58.773438 103.875 58.773438 103.878906 C 58.769531 103.878906 58.765625 103.882812 58.765625 103.886719 C 58.761719 103.886719 58.761719 103.890625 58.761719 103.894531 C 56.972656 105.886719 55.378906 108.085938 54.019531 110.4375 C 52.679688 112.757812 51.570312 115.230469 50.722656 117.796875 C 50.363281 118.894531 50.050781 119.996094 49.789062 121.105469 C 49.140625 123.878906 48.804688 126.683594 48.769531 129.464844 C 48.636719 140.042969 52.804688 150.355469 60.316406 157.863281 Z M 187.5 173.105469 C 195.4375 173.105469 201.894531 179.5625 201.894531 187.5 C 201.894531 195.453125 195.4375 201.921875 187.5 201.921875 C 179.546875 201.921875 173.078125 195.453125 173.078125 187.5 C 173.078125 179.5625 179.546875 173.105469 187.5 173.105469 Z M 187.5 215.476562 C 202.910156 215.476562 215.449219 202.925781 215.449219 187.5 C 215.449219 172.089844 202.910156 159.550781 187.5 159.550781 C 172.074219 159.550781 159.523438 172.089844 159.523438 187.5 C 159.523438 202.925781 172.074219 215.476562 187.5 215.476562 Z M 13.554688 187.5 C 13.554688 91.585938 91.585938 13.554688 187.5 13.554688 C 283.414062 13.554688 361.445312 91.585938 361.445312 187.5 C 361.445312 256.816406 320.359375 319.460938 256.78125 347.101562 C 234.890625 356.621094 211.578125 361.445312 187.5 361.445312 C 91.585938 361.445312 13.554688 283.414062 13.554688 187.5 Z M 358.472656 336.363281 C 335.320312 341.632812 311.589844 344.871094 287.625 346.066406 C 341.472656 312.0625 375 252.503906 375 187.5 C 375 162.191406 370.042969 137.636719 360.261719 114.515625 C 350.816406 92.1875 337.300781 72.136719 320.082031 54.917969 C 302.863281 37.703125 282.8125 24.183594 260.484375 14.738281 C 237.367188 4.957031 212.808594 0 187.5 0 C 162.191406 0 137.636719 4.957031 114.515625 14.738281 C 92.1875 24.183594 72.136719 37.703125 54.917969 54.917969 C 37.703125 72.136719 24.183594 92.1875 14.738281 114.515625 C 4.957031 137.636719 0 162.191406 0 187.5 C 0 212.808594 4.957031 237.367188 14.738281 260.484375 C 24.183594 282.8125 37.703125 302.863281 54.917969 320.082031 C 72.136719 337.300781 92.1875 350.816406 114.515625 360.261719 C 137.636719 370.042969 162.191406 375 187.5 375 C 212.949219 375 237.605469 369.984375 260.816406 360.105469 C 262.773438 360.132812 264.730469 360.15625 266.683594 360.15625 C 298.757812 360.15625 330.617188 356.605469 361.480469 349.578125 C 365.128906 348.75 367.414062 345.117188 366.585938 341.46875 C 365.753906 337.820312 362.121094 335.535156 358.472656 336.363281 Z M 49.664062 267.078125 C 49.660156 267.078125 49.660156 267.074219 49.660156 267.070312 C 45.183594 259.332031 43.246094 250.550781 43.835938 241.902344 C 49.699219 257.445312 58.046875 271.875 68.625 284.753906 C 60.8125 280.941406 54.148438 274.851562 49.664062 267.078125 Z M 110.167969 283.3125 C 109.394531 283.757812 108.609375 284.179688 107.8125 284.574219 C 107.550781 284.707031 107.277344 284.824219 107.015625 284.949219 C 106.46875 285.207031 105.921875 285.464844 105.367188 285.699219 C 105.050781 285.835938 104.722656 285.960938 104.402344 286.089844 C 103.890625 286.292969 103.378906 286.492188 102.859375 286.675781 C 102.515625 286.800781 102.171875 286.914062 101.824219 287.027344 C 101.316406 287.195312 100.804688 287.351562 100.292969 287.503906 C 99.9375 287.605469 99.585938 287.703125 99.230469 287.796875 C 98.707031 287.933594 98.1875 288.054688 97.664062 288.175781 C 97.3125 288.25 96.964844 288.332031 96.613281 288.40625 C 96.058594 288.511719 95.503906 288.601562 94.949219 288.695312 C 94.621094 288.746094 94.296875 288.800781 93.972656 288.847656 C 93.320312 288.9375 92.667969 289.003906 92.011719 289.0625 C 91.78125 289.082031 91.546875 289.113281 91.316406 289.132812 C 91.277344 289.132812 91.238281 289.132812 91.199219 289.136719 C 71.339844 270.332031 57.609375 246.570312 51.304688 220.121094 C 51.328125 220.085938 51.347656 220.050781 51.371094 220.015625 C 51.511719 219.8125 51.664062 219.613281 51.808594 219.410156 C 52.179688 218.882812 52.550781 218.359375 52.945312 217.851562 C 53.152344 217.585938 53.367188 217.332031 53.578125 217.066406 C 53.929688 216.632812 54.285156 216.199219 54.652344 215.78125 C 54.890625 215.507812 55.132812 215.242188 55.382812 214.976562 C 55.742188 214.578125 56.109375 214.1875 56.488281 213.808594 C 56.746094 213.546875 57.007812 213.289062 57.277344 213.035156 C 57.660156 212.664062 58.050781 212.300781 58.449219 211.941406 C 58.722656 211.699219 58.996094 211.453125 59.269531 211.21875 C 59.691406 210.863281 60.117188 210.515625 60.546875 210.179688 C 60.820312 209.960938 61.089844 209.738281 61.371094 209.53125 C 61.847656 209.167969 62.335938 208.828125 62.832031 208.484375 C 63.078125 208.316406 63.316406 208.136719 63.566406 207.972656 C 64.289062 207.492188 65.023438 207.035156 65.773438 206.597656 C 65.800781 206.582031 65.828125 206.566406 65.851562 206.550781 C 66.441406 206.210938 67.042969 205.886719 67.640625 205.578125 C 67.78125 205.503906 67.921875 205.433594 68.0625 205.363281 C 68.660156 205.0625 69.257812 204.773438 69.863281 204.5 C 69.898438 204.480469 69.9375 204.46875 69.972656 204.453125 C 70.546875 204.195312 71.125 203.957031 71.707031 203.726562 C 71.855469 203.667969 72.003906 203.609375 72.15625 203.550781 C 72.761719 203.320312 73.371094 203.097656 73.980469 202.894531 C 74.050781 202.871094 74.121094 202.847656 74.191406 202.824219 C 74.753906 202.644531 75.3125 202.472656 75.871094 202.3125 C 76.027344 202.273438 76.179688 202.226562 76.332031 202.183594 C 76.945312 202.019531 77.558594 201.863281 78.175781 201.722656 C 78.273438 201.699219 78.371094 201.683594 78.46875 201.660156 C 79.015625 201.542969 79.5625 201.433594 80.109375 201.335938 C 80.261719 201.304688 80.417969 201.277344 80.570312 201.253906 C 81.1875 201.148438 81.804688 201.054688 82.421875 200.980469 C 82.539062 200.964844 82.65625 200.953125 82.773438 200.9375 C 83.3125 200.875 83.847656 200.824219 84.386719 200.78125 C 84.535156 200.769531 84.683594 200.753906 84.835938 200.746094 C 85.457031 200.699219 86.070312 200.671875 86.691406 200.652344 C 86.820312 200.648438 86.949219 200.648438 87.082031 200.644531 C 87.492188 200.636719 87.898438 200.640625 88.304688 200.644531 C 89.007812 200.652344 89.707031 200.671875 90.402344 200.710938 C 90.574219 200.722656 90.742188 200.726562 90.910156 200.734375 C 91.769531 200.792969 92.621094 200.878906 93.46875 200.984375 C 93.679688 201.011719 93.886719 201.042969 94.097656 201.074219 C 94.753906 201.164062 95.402344 201.273438 96.054688 201.394531 C 96.3125 201.441406 96.570312 201.488281 96.828125 201.542969 C 97.519531 201.683594 98.207031 201.839844 98.894531 202.011719 C 99.042969 202.050781 99.195312 202.082031 99.347656 202.125 C 100.171875 202.34375 100.988281 202.585938 101.792969 202.851562 C 102.011719 202.921875 102.230469 203 102.449219 203.074219 C 103.054688 203.285156 103.660156 203.503906 104.253906 203.738281 C 104.503906 203.835938 104.753906 203.9375 105.007812 204.039062 C 105.667969 204.3125 106.320312 204.601562 106.964844 204.910156 C 107.097656 204.96875 107.238281 205.027344 107.371094 205.089844 C 108.136719 205.460938 108.882812 205.855469 109.625 206.265625 C 109.84375 206.390625 110.058594 206.519531 110.277344 206.644531 C 110.820312 206.960938 111.355469 207.285156 111.886719 207.621094 C 112.125 207.769531 112.359375 207.921875 112.589844 208.074219 C 113.203125 208.480469 113.804688 208.902344 114.398438 209.339844 C 114.503906 209.417969 114.617188 209.492188 114.722656 209.570312 C 115.402344 210.085938 116.066406 210.621094 116.71875 211.175781 C 116.921875 211.347656 117.121094 211.527344 117.324219 211.707031 C 117.796875 212.117188 118.257812 212.542969 118.714844 212.976562 C 118.917969 213.175781 119.125 213.371094 119.328125 213.570312 C 119.882812 214.125 120.425781 214.695312 120.953125 215.277344 C 121.019531 215.351562 121.085938 215.417969 121.152344 215.492188 C 121.730469 216.140625 122.292969 216.824219 122.839844 217.515625 C 123.003906 217.726562 123.167969 217.949219 123.332031 218.167969 C 123.730469 218.6875 124.117188 219.222656 124.492188 219.769531 C 124.648438 219.992188 124.808594 220.222656 124.960938 220.449219 C 125.460938 221.203125 125.949219 221.972656 126.410156 222.769531 C 127.148438 224.050781 127.8125 225.359375 128.410156 226.679688 C 128.429688 226.71875 128.453125 226.761719 128.46875 226.804688 C 128.691406 227.296875 128.894531 227.796875 129.09375 228.289062 C 129.171875 228.484375 129.257812 228.671875 129.332031 228.863281 C 129.488281 229.261719 129.621094 229.664062 129.765625 230.0625 C 129.871094 230.359375 129.988281 230.652344 130.085938 230.949219 C 130.195312 231.28125 130.289062 231.621094 130.394531 231.960938 C 130.503906 232.320312 130.625 232.683594 130.726562 233.050781 C 130.789062 233.273438 130.835938 233.5 130.894531 233.726562 C 131.023438 234.207031 131.148438 234.6875 131.257812 235.171875 C 131.269531 235.222656 131.28125 235.28125 131.289062 235.332031 C 135.347656 253.707031 127.324219 273.40625 110.191406 283.300781 C 110.183594 283.308594 110.175781 283.308594 110.167969 283.3125 Z M 138.148438 215.988281 C 122.175781 188.382812 86.710938 178.875 59.074219 194.8125 C 57.460938 195.746094 55.894531 196.753906 54.386719 197.835938 C 47.847656 202.507812 42.324219 208.511719 38.234375 215.421875 C 38.234375 215.425781 38.234375 215.425781 38.234375 215.425781 C 27.605469 233.410156 27.484375 255.796875 37.921875 273.851562 C 48.253906 291.757812 67.421875 302.808594 88.074219 302.808594 C 88.292969 302.808594 88.515625 302.804688 88.734375 302.804688 C 98.597656 302.695312 108.363281 300.007812 116.96875 295.039062 C 118.695312 294.042969 120.351562 292.96875 121.933594 291.824219 C 145.675781 274.695312 153.09375 241.90625 138.152344 216 C 138.148438 215.996094 138.148438 215.992188 138.148438 215.988281 " fill-opacity="1" fill-rule="nonzero"/></svg>