<svg xmlns="http://www.w3.org/2000/svg"
    xmlns:xlink="http://www.w3.org/1999/xlink" zoomAndPan="magnify" preserveAspectRatio="xMidYMid meet" version="1.0" viewBox="103.41 79.94 169.36 155.03">
    <defs>
        <g></g>
    </defs>
    <g fill="#000000" fill-opacity="1">
        <g transform="translate(97.115306, 188.600397)">
            <g>
                <path d="M 6.296875 -107.164062 L 6.296875 -103.417969 L 33.574219 -103.417969 C 42.566406 -103.417969 49.308594 -98.621094 49.308594 -89.027344 L 49.308594 -80.335938 L 54.105469 -80.335938 L 54.105469 -107.164062 Z M 40.019531 -64.296875 C 39.566406 -57.855469 34.621094 -54.554688 28.175781 -54.554688 L 28.175781 -54.40625 L 28.175781 -103.417969 L 13.1875 -103.417969 L 13.1875 -3.746094 L 8.394531 -3.746094 L 8.394531 0 L 33.574219 0 L 33.574219 -3.746094 L 28.175781 -3.746094 L 28.175781 -49.761719 C 34.621094 -49.761719 40.019531 -46.3125 40.019531 -39.867188 L 40.019531 -32.824219 L 43.316406 -32.824219 L 43.316406 -71.34375 L 40.019531 -71.34375 Z M 40.019531 -64.296875 "></path>
            </g>
        </g>
    </g>
    <g fill="#000000" fill-opacity="1">
        <g transform="translate(155.714912, 188.600397)">
            <g>
                <path d="M 50.359375 -77.039062 L 50.507812 -108.664062 L 48.5625 -108.664062 L 44.214844 -103.117188 L 43.914062 -102.816406 C 43.765625 -102.667969 43.464844 -102.519531 43.316406 -102.519531 C 43.015625 -102.519531 42.714844 -102.667969 42.566406 -102.816406 L 42.265625 -103.117188 C 41.21875 -104.167969 40.019531 -105.066406 38.667969 -105.816406 C 36.421875 -107.164062 33.273438 -108.664062 29.226562 -108.664062 C 11.691406 -108.664062 4.347656 -91.578125 4.347656 -56.203125 L 4.347656 -57.253906 C 4.347656 -16.039062 14.089844 1.5 29.078125 1.5 C 36.121094 1.5 37.917969 -0.300781 40.316406 -2.847656 L 41.667969 0 L 50.507812 0 L 50.507812 -54.105469 L 29.824219 -54.105469 L 29.824219 -49.910156 L 39.417969 -48.5625 L 39.417969 -10.339844 C 39.417969 -6.894531 37.171875 -3.296875 33.574219 -3.296875 L 33.125 -3.296875 C 25.179688 -3.296875 21.734375 -20.984375 21.734375 -44.363281 L 21.734375 -63.847656 C 21.734375 -93.675781 24.28125 -103.71875 34.023438 -103.71875 C 39.566406 -103.71875 43.164062 -95.472656 43.613281 -87.230469 L 44.066406 -77.039062 Z M 50.359375 -77.039062 "></path>
            </g>
        </g>
    </g>
    <g fill="#000000" fill-opacity="1">
        <g transform="translate(211.616836, 188.600397)">
            <g>
                <path d="M 26.078125 0 L 32.675781 0 C 49.460938 0 61.152344 -8.09375 61.152344 -28.175781 C 61.152344 -38.21875 58.601562 -43.914062 56.203125 -47.363281 C 54.855469 -49.308594 53.207031 -50.660156 51.410156 -51.558594 C 56.355469 -56.503906 58.902344 -63.398438 58.902344 -79.4375 C 58.902344 -94.425781 49.910156 -107.015625 32.523438 -107.015625 L 7.195312 -107.015625 L 7.195312 -103.265625 L 12.441406 -103.265625 L 12.441406 -3.898438 L 7.34375 -3.898438 L 7.34375 0 Z M 44.515625 -71.792969 C 44.515625 -62.050781 40.316406 -53.808594 32.523438 -53.808594 L 27.277344 -53.808594 L 27.277344 -102.96875 L 32.523438 -102.96875 C 40.316406 -102.96875 44.515625 -95.023438 44.515625 -84.234375 Z M 44.664062 -21.582031 C 44.664062 -10.792969 38.519531 -3.898438 32.675781 -3.898438 L 27.429688 -3.898438 L 27.429688 -49.609375 L 32.523438 -49.609375 C 40.167969 -49.609375 44.664062 -42.867188 44.664062 -34.023438 Z M 44.664062 -21.582031 "></path>
            </g>
        </g>
    </g>
    <g fill="#000000" fill-opacity="1">
        <g transform="translate(122.919277, 234.434128)">
            <g>
                <path d="M 2.953125 -31.457031 L 1.496094 -31.457031 L 1.496094 -24.011719 L 2.597656 -24.011719 L 2.953125 -25.992188 C 2.953125 -28.769531 4.933594 -30.355469 7.621094 -30.355469 L 8.238281 -30.355469 L 8.238281 -1.191406 L 6.519531 -1.191406 L 6.519531 0 L 14.449219 0 L 14.449219 -1.191406 L 12.777344 -1.191406 L 12.777344 -30.355469 L 13.394531 -30.355469 C 16.035156 -30.355469 18.019531 -28.769531 18.019531 -25.992188 L 18.503906 -24.011719 L 19.472656 -24.011719 L 19.472656 -31.457031 Z M 2.953125 -31.457031 "></path>
            </g>
        </g>
    </g>
    <g fill="#000000" fill-opacity="1">
        <g transform="translate(143.362121, 234.434128)">
            <g>
                <path d="M 15.949219 -1.984375 L 15.949219 -17.578125 C 15.949219 -20.003906 14.320312 -22.292969 12.070312 -22.292969 C 10.089844 -22.292969 8.855469 -21.5 8.019531 -20.664062 C 7.535156 -20.179688 7.179688 -19.648438 6.917969 -19.078125 L 6.917969 -30.839844 C 6.917969 -31.414062 6.519531 -32.164062 5.640625 -32.164062 C 5.15625 -32.164062 4.449219 -31.898438 3.878906 -31.589844 C 3.523438 -31.457031 3.171875 -31.28125 2.820312 -31.0625 L 0.882812 -30.136719 L 1.320312 -29.296875 L 2.863281 -29.871094 L 2.863281 -0.835938 L 1.144531 -0.835938 L 1.144531 -0.0429688 L 8.722656 -0.0429688 L 8.722656 -0.835938 L 6.917969 -0.835938 L 6.917969 -16.785156 C 7.269531 -18.152344 8.460938 -20.355469 10.046875 -20.355469 C 10.925781 -20.355469 11.894531 -19.472656 11.894531 -17.84375 L 11.894531 -3.128906 C 11.894531 -0.835938 12.996094 0.265625 14.363281 0.265625 C 15.773438 0.265625 16.875 0 17.710938 -0.351562 L 17.578125 -1.234375 C 17.359375 -1.191406 17.183594 -1.144531 17.050781 -1.144531 C 16.390625 -1.144531 15.949219 -1.453125 15.949219 -1.984375 Z M 15.949219 -1.984375 "></path>
            </g>
        </g>
    </g>
    <g fill="#000000" fill-opacity="1">
        <g transform="translate(161.734232, 234.434128)">
            <g>
                <path d="M 14.230469 -12.910156 L 14.230469 -13.085938 C 13.921875 -19.78125 11.851562 -22.292969 8.152344 -22.292969 C 3.789062 -22.292969 1.011719 -17.445312 1.011719 -10.96875 C 1.011719 -3.964844 4.007812 0.441406 8.152344 0.441406 L 8.945312 0.441406 C 11.894531 0.441406 14.1875 -1.277344 14.1875 -4.054688 L 12.820312 -4.054688 C 12.46875 -1.804688 11.101562 -0.484375 9.339844 -0.484375 C 6.695312 -0.484375 5.417969 -3.390625 5.417969 -11.941406 L 14.230469 -11.941406 Z M 8.105469 -21.367188 C 10 -21.367188 10.484375 -19.957031 10.484375 -13.085938 L 5.417969 -13.085938 C 5.550781 -19.472656 6.476562 -21.367188 8.105469 -21.367188 Z M 8.105469 -21.367188 "></path>
            </g>
        </g>
    </g>
    <g fill="#000000" fill-opacity="1">
        <g transform="translate(177.066349, 234.434128)">
            <g>
                <path d="M 16.214844 -3.171875 C 16.167969 -3.039062 16.125 -2.90625 16.035156 -2.777344 C 15.90625 -2.511719 15.597656 -2.378906 15.15625 -2.378906 C 14.40625 -2.378906 14.011719 -3.085938 14.011719 -3.921875 L 14.054688 -16.828125 C 14.054688 -19.78125 12.203125 -22.292969 8.238281 -22.292969 C 4.492188 -22.292969 2.335938 -20.398438 2.335938 -17.976562 C 2.335938 -16.917969 3.214844 -16.035156 4.273438 -16.035156 C 5.464844 -16.035156 6.300781 -16.917969 6.300781 -17.976562 C 6.300781 -18.988281 5.683594 -19.695312 4.671875 -19.871094 C 5.023438 -20.707031 6.078125 -21.324219 7.359375 -21.324219 C 8.898438 -21.324219 10 -20.179688 10 -17.007812 L 10 -13.085938 C 6.652344 -12.863281 1.101562 -10.707031 1.101562 -5.375 C 1.101562 -1.191406 3.214844 0.398438 5.640625 0.398438 C 7.003906 0.398438 8.238281 -0.351562 9.074219 -1.101562 C 9.558594 -1.542969 10.046875 -2.027344 10.441406 -2.597656 C 10.441406 -2.644531 10.441406 -2.644531 10.484375 -2.6875 C 10.53125 -2.730469 10.617188 -2.730469 10.707031 -2.6875 C 10.792969 -2.113281 10.96875 -1.585938 11.191406 -1.144531 C 11.585938 -0.308594 12.335938 0.398438 13.703125 0.398438 C 15.464844 0.398438 17.09375 -0.703125 17.09375 -3.171875 Z M 7.578125 -1.894531 C 6.566406 -1.894531 5.464844 -2.90625 5.464844 -6.300781 C 5.464844 -10.441406 8.105469 -11.894531 10 -12.027344 L 9.957031 -3.921875 C 9.558594 -2.996094 8.589844 -1.894531 7.578125 -1.894531 Z M 7.578125 -1.894531 "></path>
            </g>
        </g>
    </g>
    <g fill="#000000" fill-opacity="1">
        <g transform="translate(194.160795, 234.434128)">
            <g>
                <path d="M 6.917969 -27.976562 L 4.492188 -27.09375 L 4.492188 -26.917969 C 4.492188 -23.394531 2.246094 -21.941406 0.882812 -21.941406 L 0.882812 -20.796875 L 2.90625 -20.796875 L 2.90625 -5.023438 C 2.90625 -2.027344 4.230469 0.484375 6.566406 0.484375 C 7.796875 0.484375 11.585938 0 11.585938 -5.15625 L 10.792969 -5.15625 C 10.792969 -3.878906 10 -1.542969 8.105469 -1.542969 C 7.359375 -1.542969 6.917969 -2.421875 6.917969 -3.613281 L 6.917969 -20.796875 L 10.882812 -20.796875 L 10.882812 -21.941406 L 6.917969 -21.941406 Z M 6.917969 -27.976562 "></path>
            </g>
        </g>
    </g>
    <g fill="#000000" fill-opacity="1">
        <g transform="translate(206.84945, 234.434128)">
            <g>
                <path d="M 14.230469 -12.910156 L 14.230469 -13.085938 C 13.921875 -19.78125 11.851562 -22.292969 8.152344 -22.292969 C 3.789062 -22.292969 1.011719 -17.445312 1.011719 -10.96875 C 1.011719 -3.964844 4.007812 0.441406 8.152344 0.441406 L 8.945312 0.441406 C 11.894531 0.441406 14.1875 -1.277344 14.1875 -4.054688 L 12.820312 -4.054688 C 12.46875 -1.804688 11.101562 -0.484375 9.339844 -0.484375 C 6.695312 -0.484375 5.417969 -3.390625 5.417969 -11.941406 L 14.230469 -11.941406 Z M 8.105469 -21.367188 C 10 -21.367188 10.484375 -19.957031 10.484375 -13.085938 L 5.417969 -13.085938 C 5.550781 -19.472656 6.476562 -21.367188 8.105469 -21.367188 Z M 8.105469 -21.367188 "></path>
            </g>
        </g>
    </g>
    <g fill="#000000" fill-opacity="1">
        <g transform="translate(222.181566, 234.434128)">
            <g>
                <path d="M 13.878906 -21.632812 C 13.4375 -22.074219 12.910156 -22.292969 12.335938 -22.292969 L 12.292969 -22.292969 C 10.222656 -22.292969 8.105469 -21.324219 7.003906 -19.078125 L 7.003906 -20.882812 C 7.003906 -21.457031 6.566406 -22.117188 5.683594 -22.117188 C 5.199219 -22.117188 4.582031 -21.898438 4.007812 -21.589844 L 2.953125 -21.058594 L 0.96875 -20.003906 L 1.367188 -19.339844 L 2.953125 -19.914062 L 2.953125 -0.835938 L 1.367188 -0.835938 L 1.367188 0 L 8.765625 0 L 8.765625 -0.835938 L 7.003906 -0.835938 L 7.003906 -16.785156 C 7.003906 -17.136719 7.621094 -19.339844 10.089844 -20.53125 L 10.089844 -20.003906 C 10.089844 -18.769531 11.058594 -17.800781 12.292969 -17.800781 C 13.65625 -17.800781 14.539062 -18.769531 14.539062 -20.003906 C 14.539062 -20.707031 14.320312 -21.234375 13.878906 -21.632812 Z M 13.878906 -21.632812 "></path>
            </g>
        </g>
    </g>
    <g fill="#000000" fill-opacity="1">
        <g transform="translate(237.29341, 234.434128)">
            <g>
                <path d="M 7.488281 -22.25 C 3.878906 -22.25 1.320312 -20.179688 1.320312 -16.917969 C 1.320312 -12.554688 7.621094 -8.988281 9.207031 -5.992188 C 9.429688 -5.550781 9.738281 -4.890625 9.738281 -3.964844 C 9.738281 -1.804688 8.460938 -0.484375 6.871094 -0.484375 C 3.214844 -0.484375 2.070312 -7.09375 2.070312 -7.09375 C 2.070312 -7.09375 1.191406 -7.09375 1.191406 -7.09375 C 1.191406 -7.09375 1.191406 0.441406 1.191406 0.441406 L 2.070312 0.441406 C 2.070312 -0.0429688 2.46875 -0.574219 2.90625 -0.574219 C 3.570312 -0.574219 5.023438 0.527344 7.445312 0.527344 C 10.925781 0.527344 13.835938 -1.628906 13.835938 -4.890625 C 13.835938 -5.59375 13.789062 -7.09375 13.085938 -8.238281 C 11.015625 -12.292969 5.199219 -13.835938 5.199219 -17.84375 C 5.199219 -19.957031 6.167969 -21.410156 7.796875 -21.410156 C 11.453125 -21.410156 12.425781 -14.757812 12.425781 -14.757812 C 12.425781 -14.757812 13.304688 -14.757812 13.304688 -14.757812 C 13.304688 -14.757812 13.304688 -22.292969 13.304688 -22.292969 L 12.425781 -22.292969 C 12.425781 -21.808594 12.027344 -21.28125 11.585938 -21.28125 C 10.925781 -21.28125 9.914062 -22.25 7.488281 -22.25 Z M 7.488281 -22.25 "></path>
            </g>
        </g>
    </g>
</svg>